<ttFont>
              <CharString index="0" raw="1">
                b8f70415 38c861d4 c6aca5c1 c21e5b94
                ac6ebb1b aea798b2 a31f77a1 057e8080
                827a1b75 7d9bb61f f76907f7 1259bb22
                25415b3f 781e718e 9b7ca71b a69b9caa
                941f9ecc 0590a09d 8c9a1bcd a7732a1f
                72076381 617f6c80 08fb1b5a 6c5e521a
                e49a15a9 96b1e2ad 1ea093af 97ae9408
                fb2c0762 52787f69 1b5d69a0 c01f0b
              </CharString>
              <CharString index="1" raw="1">
                e7fb8d15 ddc3d6f7 45ce1ff7 35f83dc1
                9605affb 576707e2 7ffb0ffb e8fb11f7
                e9e39505 b0fb8467 07c183f7 4bfc5d86
                7f78556f 55606719 869005a7 70769571
                1b6c6e7c 6e841f64 b570bd1e 0b
              </CharString>
              <CharString index="0" raw="1">
                f81ef908 15e57ffb 23fbc1fb 1ff7c2ea
                9605b4fb ae6207d9 82f746fb fc053e8a
                478a4d1e 25800562 f7c2b407 25960589
                cb8bd0da 1af73ef7 f3e39805 b4fb7907
                0b   
              </CharString>
              <CharString index="1" raw="1">
                9016f779 b4062a98 c2f73705 f77c06c3
                fb392880 0562f7a4 b4074094 fb69f904
                054c06fb 69fd0137 7f05f75f f77315f0
                f7beeffb be050b  
              </CharString>
        <CharString name=".notdef" fdSelectIndex="0">
          500 0 50 600 50 hstem
          0 50 400 50 vstem
          0 0 rmoveto
          500 700 -500 hlineto
          250 -305 rmoveto
          -170 255 rlineto
          340 hlineto
          -140 -300 rmoveto
          170 255 rlineto
          -510 vlineto
          -370 -45 rmoveto
          170 255 170 -255 rlineto
          -370 555 rmoveto
          170 -255 -170 -255 rlineto
          endchar
        </CharString>
        <CharString name="cid00001" fdSelectIndex="2">
          -76 0 45.5 -45.5 46.5 170.5 47 410 -20 hstemhm
          5 229 -229 648 hintmask 01110100
          5 0 rmoveto
          hintmask 01111000
          229 41 hlineto
          -97 13 55 163 rlineto
          232 hlineto
          56 -165 -99 -11 rlineto
          -41 272 vlineto
          hintmask 10110100
          41 vlineto
          -75 9 -213 624 rlineto
          -63 hlineto
          hintmask 01111000
          -213 -621 -84 -12 rlineto
          203 223 rmoveto
          101 298 100 -298 rlineto
          endchar
        </CharString>
        <CharString name="cid00002" fdSelectIndex="2">
          -107 0 46.5 576 46.5 -45.5 45.5 -41 41 hstemhm
          271 94 29 229 hintmask 10011100
          394 628 rmoveto
          90 -12 -143 -301 rlineto
          hintmask 11001000
          -139 302 95 11 rlineto
          41 -282 vlineto
          hintmask 10101000
          -41 vlineto
          78 -9 178 -360 rlineto
          -77 -1 -68 -1 -62 vhcurveto
          -102 -11 rlineto
          -41 302 41 vlineto
          -102 11 rlineto
          -2 64 0 69 79 vvcurveto
          hintmask 10011100
          170 351 88 13 rlineto
          hintmask 11001100
          41 -229 vlineto
          endchar
        </CharString>
        <CharString name="cid00003" fdSelectIndex="1">
          -107 -13 66 -63 52 400 46 hstemhm
          45 89 190 84 hintmask 10111000
          45 112 rmoveto
          -83 61 -42 73 59 33 26 54 55 vhcurveto
          hintmask 01111000
          -48 9 33 -29 48 hhcurveto
          35 28 13 39 24 hvcurveto
          -20 22 rlineto
          -13 -11 -11 -9 -17 hhcurveto
          -22 -14 16 43 hvcurveto
          213 vlineto
          126 -50 48 -105 -102 -74 -48 -76 -19 vhcurveto
          -26 3 16 -15 28 hhcurveto
          27 16 17 31 9 hvcurveto
          19 65 rlineto
          5 21 18 1 15 hhcurveto
          66 28 -24 -97 hvcurveto
          -25 vlineto
          -40 -10 -42 -12 -31 -11 rrcurveto
          hintmask 10111000
          -135 -49 -31 -45 -57 vvcurveto
          89 15 rmoveto
          30 11 38 87 34 vhcurveto
          21 8 36 12 35 9 rrcurveto
          -152 vlineto
          -41 -57 -19 -12 -34 hhcurveto
          -46 -34 21 53 hvcurveto
          endchar
        </CharString>
        <CharString name="cid00004" fdSelectIndex="1">
          -104 -249 110 572 42 -40 40 -36 36 hstemhm
          0 512 -195 195 hintmask 11001000
          92 -249 rmoveto
          82 56 75 177 67 hvcurveto
          hintmask 10010100
          161 425 54 11 rlineto
          hintmask 11000100
          36 -195 vlineto
          hintmask 10010100
          -36 vlineto
          87 -12 -123 -340 rlineto
          hintmask 11001000
          -125 341 88 10 rlineto
          37 -240 vlineto
          hintmask 10101000
          -36 vlineto
          54 -8 183 -457 -5 -12 -19 -54 -28 -54 -43 -36 rlinecurve
          -5 5 rlineto
          28 -27 -21 10 -26 hhcurveto
          -31 -29 -15 -29 -7 hvcurveto
          hintmask 11001000
          -39 42 -27 50 vhcurveto
          endchar
        </CharString>
        <CharString name="cid00005" fdSelectIndex="2">
          -76 0 45.5 -45.5 46.5 170.5 47 410 -20 hstemhm
          5 229 -229 648 hintmask 01110100
          5 0 rmoveto
          hintmask 01111000
          229 41 hlineto
          -97 13 55 163 rlineto
          232 hlineto
          56 -165 -99 -11 rlineto
          -41 272 vlineto
          hintmask 10110100
          41 vlineto
          -75 9 -213 624 rlineto
          -63 hlineto
          hintmask 01111000
          -213 -621 -84 -12 rlineto
          203 223 rmoveto
          101 298 100 -298 rlineto
          -143 481 rmoveto
          18 -25 42 22 42 23 42 23 rlinecurve
          38 21 12 16 18 vvcurveto
          20 -17 14 -21 -17 -17 -10 -28 -28 vhcurveto
          -32 -30 -31 -31 -31 -33 rrcurveto
          endchar
        </CharString>
        <CharString name="cid00006" fdSelectIndex="2">
          -76 0 45.5 -45.5 46.5 170.5 47 410 -20 90 110 hstemhm
          5 229 -72 115 109 115 hintmask 01111011
          5 0 rmoveto
          hintmask 01111101
          229 41 hlineto
          -97 13 55 163 rlineto
          232 hlineto
          56 -165 -99 -11 rlineto
          -41 272 vlineto
          hintmask 10111011
          41 vlineto
          -75 9 -213 624 rlineto
          -63 hlineto
          hintmask 01111101
          -213 -621 -84 -12 rlineto
          203 223 rmoveto
          101 298 100 -298 rlineto
          hintmask 01111011
          -189 480 rmoveto
          32 25 23 32 32 -25 23 -32 -31 -27 -23 -32 -32 27 -23 31 hvcurveto
          223 0 rmoveto
          31 27 23 32 32 -27 23 -31 -32 -25 -23 -32 -32 25 -23 32 hvcurveto
          endchar
        </CharString>
        <CharString name="cid00007" fdSelectIndex="2">
          -76 0 45.5 -45.5 46.5 170.5 47 410 -20 69 58 23 59 hstemhm
          5 229 -229 648 hintmask 01111001
          5 0 rmoveto
          hintmask 01111010
          229 41 hlineto
          -97 13 55 163 rlineto
          232 hlineto
          56 -165 -99 -11 rlineto
          -41 272 vlineto
          hintmask 10111001
          41 vlineto
          -75 9 -213 624 rlineto
          -63 hlineto
          hintmask 01111110
          -213 -621 -84 -12 rlineto
          203 223 rmoveto
          101 298 100 -298 rlineto
          -258 470 rmoveto
          30 -9 rlineto
          49 15 21 30 32 hhcurveto
          30 21 -27 -21 25 hvcurveto
          hintmask 01111001
          -17 22 23 -16 37 hhcurveto
          61 30 51 77 13 hvcurveto
          -30 10 rlineto
          -49 -15 -20 -31 -33 hhcurveto
          -30 -21 28 20 -25 hvcurveto
          hintmask 01111101
          18 -23 -22 16 -36 hhcurveto
          hintmask 01111110
          -61 -32 -51 -78 -12 hvcurveto
          endchar
        </CharString>
        <CharString name="cid00008" fdSelectIndex="2">
          -107 0 46.5 576 46.5 -45.5 45.5 -41 41 hstemhm
          271 94 29 229 hintmask 10011100
          394 628 rmoveto
          90 -12 -143 -301 rlineto
          hintmask 11001000
          -139 302 95 11 rlineto
          41 -282 vlineto
          hintmask 10101000
          -41 vlineto
          78 -9 178 -360 rlineto
          -77 -1 -68 -1 -62 vhcurveto
          -102 -11 rlineto
          -41 302 41 vlineto
          -102 11 rlineto
          -2 64 0 69 79 vvcurveto
          hintmask 10011100
          170 351 88 13 rlineto
          hintmask 11001100
          41 -229 vlineto
          -89 66 rmoveto
          18 -25 42 22 42 23 42 23 rlinecurve
          38 21 12 16 18 vvcurveto
          20 -17 14 -21 -17 -17 -10 -28 -28 vhcurveto
          -32 -30 -31 -31 -31 -33 rrcurveto
          endchar
        </CharString>
        <CharString name="cid00009" fdSelectIndex="2">
          -107 0 46.5 576 46.5 -45.5 45.5 -41 41 75 110 hstemhm
          177 115 -21 94 29 229 -222 115 hintmask 1001001100000000
          394 628 rmoveto
          90 -12 -143 -301 rlineto
          hintmask 1100001000000000
          -139 302 95 11 rlineto
          41 -282 vlineto
          hintmask 1010001000000000
          -41 vlineto
          78 -9 178 -360 rlineto
          -77 -1 -68 -1 -62 vhcurveto
          -102 -11 rlineto
          -41 302 41 vlineto
          -102 11 rlineto
          -2 64 0 69 79 vvcurveto
          hintmask 1001001100000000
          170 351 88 13 rlineto
          hintmask 1100110100000000
          41 -229 vlineto
          -159 75 rmoveto
          32 25 23 32 32 -25 23 -32 -31 -27 -23 -32 -32 27 -23 31 hvcurveto
          hintmask 1100101010000000
          223 0 rmoveto
          31 27 23 32 32 -27 23 -31 -32 -25 -23 -32 -32 25 -23 32 hvcurveto
          endchar
        </CharString>
        <CharString name="cid00010" fdSelectIndex="1">
          -107 -13 66 -63 52 400 46 hstemhm
          45 89 190 84 hintmask 10111000
          45 112 rmoveto
          -83 61 -42 73 59 33 26 54 55 vhcurveto
          hintmask 01111000
          -48 9 33 -29 48 hhcurveto
          35 28 13 39 24 hvcurveto
          -20 22 rlineto
          -13 -11 -11 -9 -17 hhcurveto
          -22 -14 16 43 hvcurveto
          213 vlineto
          126 -50 48 -105 -102 -74 -48 -76 -19 vhcurveto
          -26 3 16 -15 28 hhcurveto
          27 16 17 31 9 hvcurveto
          19 65 rlineto
          5 21 18 1 15 hhcurveto
          66 28 -24 -97 hvcurveto
          -25 vlineto
          -40 -10 -42 -12 -31 -11 rrcurveto
          hintmask 10111000
          -135 -49 -31 -45 -57 vvcurveto
          89 15 rmoveto
          30 11 38 87 34 vhcurveto
          21 8 36 12 35 9 rrcurveto
          -152 vlineto
          -41 -57 -19 -12 -34 hhcurveto
          -46 -34 21 53 hvcurveto
          85 449 rmoveto
          26 -19 41 36 39 35 41 37 rlinecurve
          28 26 6 15 14 vvcurveto
          26 -19 12 -19 -18 -17 -10 -31 -19 vhcurveto
          -32 -48 -29 -46 -28 -47 rrcurveto
          endchar
        </CharString>
        <CharString name="cid00011" fdSelectIndex="1">
          -107 -13 66 -63 52 400 46 108 114 hstemhm
          45 89 -48 119 90 119 -90 84 hintmask 10111001
          45 112 rmoveto
          -83 61 -42 73 59 33 26 54 55 vhcurveto
          hintmask 01111001
          -48 9 33 -29 48 hhcurveto
          35 28 13 39 24 hvcurveto
          -20 22 rlineto
          -13 -11 -11 -9 -17 hhcurveto
          -22 -14 16 43 hvcurveto
          213 vlineto
          126 -50 48 -105 -102 -74 -48 -76 -19 vhcurveto
          -26 3 16 -15 28 hhcurveto
          27 16 17 31 9 hvcurveto
          19 65 rlineto
          5 21 18 1 15 hhcurveto
          66 28 -24 -97 hvcurveto
          -25 vlineto
          -40 -10 -42 -12 -31 -11 rrcurveto
          hintmask 10111001
          -135 -49 -31 -45 -57 vvcurveto
          89 15 rmoveto
          30 11 38 87 34 vhcurveto
          21 8 36 12 35 9 rrcurveto
          -152 vlineto
          -41 -57 -19 -12 -34 hhcurveto
          -46 -34 21 53 hvcurveto
          hintmask 10110110
          221 469 rmoveto
          32 27 24 33 32 -27 25 -32 -33 -27 -25 -32 -33 27 -24 33 hvcurveto
          -210 0 rmoveto
          33 27 24 33 32 -27 25 -33 -32 -27 -25 -32 -33 27 -24 32 hvcurveto
          endchar
        </CharString>
        <CharString name="cid00012" fdSelectIndex="1">
          -107 -13 66 -63 52 400 46 87 58 23 59 hstemhm
          45 89 190 84 hintmask 10110110
          45 112 rmoveto
          -83 61 -42 73 59 33 26 54 55 vhcurveto
          hintmask 01110110
          -48 9 33 -29 48 hhcurveto
          35 28 13 39 24 hvcurveto
          -20 22 rlineto
          -13 -11 -11 -9 -17 hhcurveto
          -22 -14 16 43 hvcurveto
          213 vlineto
          126 -50 48 -105 -102 -74 -48 -76 -19 vhcurveto
          -26 3 16 -15 28 hhcurveto
          27 16 17 31 9 hvcurveto
          19 65 rlineto
          5 21 18 1 15 hhcurveto
          66 28 -24 -97 hvcurveto
          -25 vlineto
          -40 -10 -42 -12 -31 -11 rrcurveto
          hintmask 10110110
          -135 -49 -31 -45 -57 vvcurveto
          89 15 rmoveto
          30 11 38 87 34 vhcurveto
          21 8 36 12 35 9 rrcurveto
          -152 vlineto
          -41 -57 -19 -12 -34 hhcurveto
          -46 -34 21 53 hvcurveto
          hintmask 10111110
          -54 459 rmoveto
          27 -9 rlineto
          49 14 18 30 30 hhcurveto
          27 19 -27 -21 23 hvcurveto
          hintmask 10110110
          -17 19 21 -16 33 hhcurveto
          56 27 51 77 12 hvcurveto
          -27 10 rlineto
          -49 -14 -18 -31 -30 hhcurveto
          -27 -19 28 20 -23 hvcurveto
          hintmask 10111110
          18 -20 -20 16 -33 hhcurveto
          -55 -29 -51 -78 -11 hvcurveto
          endchar
        </CharString>
        <CharString name="cid00013" fdSelectIndex="1">
          -104 -249 110 572 42 -40 40 -36 36 hstemhm
          0 512 -195 195 hintmask 11001000
          92 -249 rmoveto
          82 56 75 177 67 hvcurveto
          hintmask 10010100
          161 425 54 11 rlineto
          hintmask 11000100
          36 -195 vlineto
          hintmask 10010100
          -36 vlineto
          87 -12 -123 -340 rlineto
          hintmask 11001000
          -125 341 88 10 rlineto
          37 -240 vlineto
          hintmask 10101000
          -36 vlineto
          54 -8 183 -457 -5 -12 -19 -54 -28 -54 -43 -36 rlinecurve
          -5 5 rlineto
          28 -27 -21 10 -26 hhcurveto
          -31 -29 -15 -29 -7 hvcurveto
          hintmask 11001000
          -39 42 -27 50 vhcurveto
          155 825 rmoveto
          26 -19 41 36 39 35 41 37 rlinecurve
          28 26 6 15 14 vvcurveto
          26 -19 12 -19 -18 -17 -10 -31 -19 vhcurveto
          -32 -48 -29 -46 -28 -47 rrcurveto
          endchar
        </CharString>
        <CharString name="cid00014" fdSelectIndex="1">
          -104 -249 110 572 42 -40 40 -36 36 121 114 hstemhm
          120 119 78 195 -183 119 hintmask 11001101
          92 -249 rmoveto
          82 56 75 177 67 hvcurveto
          hintmask 10011110
          161 425 54 11 rlineto
          hintmask 11001110
          36 -195 vlineto
          hintmask 10011110
          -36 vlineto
          87 -12 -123 -340 rlineto
          hintmask 11001101
          -125 341 88 10 rlineto
          37 -240 vlineto
          hintmask 10101101
          -36 vlineto
          54 -8 183 -457 -5 -12 -19 -54 -28 -54 -43 -36 rlinecurve
          -5 5 rlineto
          28 -27 -21 10 -26 hhcurveto
          -31 -29 -15 -29 -7 hvcurveto
          hintmask 11001101
          -39 42 -27 50 vhcurveto
          297 845 rmoveto
          32 27 24 33 32 -27 25 -32 -33 -27 -25 -32 -33 27 -24 33 hvcurveto
          -210 0 rmoveto
          33 27 24 33 32 -27 25 -33 -32 -27 -25 -32 -33 27 -24 32 hvcurveto
          endchar
        </CharString>
        <CharString name="cid00015" fdSelectIndex="2">
          -107 0 46.5 576 46.5 -45.5 45.5 -41 41 54 58 23 59 hstemhm
          271 94 29 229 hintmask 10011011
          394 628 rmoveto
          90 -12 -143 -301 rlineto
          hintmask 11001010
          -139 302 95 11 rlineto
          41 -282 vlineto
          hintmask 10101010
          -41 vlineto
          78 -9 178 -360 rlineto
          -77 -1 -68 -1 -62 vhcurveto
          -102 -11 rlineto
          -41 302 41 vlineto
          -102 11 rlineto
          -2 64 0 69 79 vvcurveto
          hintmask 10011011
          170 351 88 13 rlineto
          hintmask 11001111
          41 -229 vlineto
          -228 65 rmoveto
          30 -9 rlineto
          49 15 21 30 32 hhcurveto
          30 21 -27 -21 25 hvcurveto
          hintmask 11001010
          -17 22 23 -16 37 hhcurveto
          61 30 51 77 13 hvcurveto
          -30 10 rlineto
          -49 -15 -20 -31 -33 hhcurveto
          -30 -21 28 20 -25 hvcurveto
          hintmask 11001110
          18 -23 -22 16 -36 hhcurveto
          hintmask 11001111
          -61 -32 -51 -78 -12 hvcurveto
          endchar
        </CharString>
        <CharString name="cid00016" fdSelectIndex="1">
          -104 -249 110 572 42 -40 40 -36 36 100 58 23 59 hstemhm
          0 512 -195 195 hintmask 11001010
          92 -249 rmoveto
          82 56 75 177 67 hvcurveto
          hintmask 10011001
          161 425 54 11 rlineto
          hintmask 11001001
          36 -195 vlineto
          hintmask 10011001
          -36 vlineto
          87 -12 -123 -340 rlineto
          hintmask 11001010
          -125 341 88 10 rlineto
          37 -240 vlineto
          hintmask 10101010
          -36 vlineto
          54 -8 183 -457 -5 -12 -19 -54 -28 -54 -43 -36 rlinecurve
          -5 5 rlineto
          28 -27 -21 10 -26 hhcurveto
          -31 -29 -15 -29 -7 hvcurveto
          hintmask 11001010
          -39 42 -27 50 vhcurveto
          hintmask 11001110
          19 835 rmoveto
          27 -9 rlineto
          49 14 18 30 30 hhcurveto
          27 19 -27 -21 23 hvcurveto
          hintmask 11001010
          -17 19 21 -16 33 hhcurveto
          56 27 51 77 12 hvcurveto
          -27 10 rlineto
          -49 -14 -18 -31 -30 hhcurveto
          -27 -19 28 20 -23 hvcurveto
          hintmask 11001110
          18 -20 -20 16 -33 hhcurveto
          -55 -29 -51 -78 -11 hvcurveto
          endchar
        </CharString>
        <CharString name="cid00017" fdSelectIndex="0">
          0 557 201 hstem
          -59 181 vstem
          -59 576 rmoveto
          26 -19 41 36 39 35 41 37 rlinecurve
          28 26 6 15 14 vvcurveto
          26 -19 12 -19 -18 -17 -10 -31 -19 vhcurveto
          -32 -48 -29 -46 -28 -47 rrcurveto
          endchar
        </CharString>
        <CharString name="cid00018" fdSelectIndex="0">
          0 720 157 hstem
          -67 194 vstem
          -67 745 rmoveto
          18 -25 42 22 42 23 42 23 rlinecurve
          38 21 12 16 18 vvcurveto
          20 -17 14 -21 -17 -17 -10 -28 -28 vhcurveto
          -32 -30 -31 -31 -31 -33 rrcurveto
          endchar
        </CharString>
        <CharString name="cid00019" fdSelectIndex="0">
          0 596 114 hstem
          -164 119 90 119 vstem
          105 596 rmoveto
          32 27 24 33 32 -27 25 -32 -33 -27 -25 -32 -33 27 -24 33 hvcurveto
          -210 0 rmoveto
          33 27 24 33 32 -27 25 -33 -32 -27 -25 -32 -33 27 -24 32 hvcurveto
          endchar
        </CharString>
        <CharString name="cid00020" fdSelectIndex="0">
          0 744 110 hstem
          -170 115 109 115 vstem
          -112 744 rmoveto
          32 25 23 32 32 -25 23 -32 -31 -27 -23 -32 -32 27 -23 31 hvcurveto
          223 0 rmoveto
          31 27 23 32 32 -27 23 -31 -32 -25 -23 -32 -32 25 -23 32 hvcurveto
          endchar
        </CharString>
        <CharString name="cid00021" fdSelectIndex="0">
          0 575 58 23 59 hstemhm
          -163 326 hintmask 11100000
          -163 586 rmoveto
          27 -9 rlineto
          49 14 18 30 30 hhcurveto
          27 19 -27 -21 23 hvcurveto
          hintmask 10100000
          -17 19 21 -16 33 hhcurveto
          56 27 51 77 12 hvcurveto
          -27 10 rlineto
          -49 -14 -18 -31 -30 hhcurveto
          -27 -19 28 20 -23 hvcurveto
          hintmask 11100000
          18 -20 -20 16 -33 hhcurveto
          -55 -29 -51 -78 -11 hvcurveto
          endchar
        </CharString>
        <CharString name="cid00022" fdSelectIndex="0">
          0 723 58 23 59 hstemhm
          -180 360 hintmask 11100000
          -180 734 rmoveto
          30 -9 rlineto
          49 15 21 30 32 hhcurveto
          30 21 -27 -21 25 hvcurveto
          hintmask 10100000
          -17 22 23 -16 37 hhcurveto
          61 30 51 77 13 hvcurveto
          -30 10 rlineto
          -49 -15 -20 -31 -33 hhcurveto
          -30 -21 28 20 -25 hvcurveto
          hintmask 11100000
          18 -23 -22 16 -36 hhcurveto
          -61 -32 -51 -78 -12 hvcurveto
          endchar
        </CharString>
      <CharString index="0" raw="1">
        15a98205 bc9aa0a9 ab1ba9a0 7076a41f
        7aa1a27b b01bc8a9 bed8981f 6d95055a
        7c776c6a 1b6d76a7 9f721f9d 74759b67
        1b4e6b58 3d7f1f0e  
      </CharString>
      <CharString index="1" raw="1">
        15a68205 bc999da9 a91ba69e 7076a21f
        7a9ea07b ac1bc3a6 bed8971f 7095055a
        7d796c6d 1b7078a7 9f741f9d 77779b6a
        1b546e58 3d801f0e  
      </CharString>
      <CharString index="2" raw="1">
        15aba6a3 acab70a4 6b6a7072 6b6aa673
        ac1ffb66 16aca6a3 acab70a4 6a6b7072
        6b6aa673 ab1f0e  
      </CharString>
      <CharString index="3" raw="1">
        15aba4a2 abab72a2 6b6c7074 6b6ba674
        aa1ff773 16aaa6a2 abab70a2 6c6b7274
        6b6ba474 ab1f0e  
      </CharString>
      <CharString index="4" raw="1">
        159d72b5 a1b5a2b5 a219b1a0 979b9d1a
        9f7a9976 7a7a816f 6f1e6b6d 6c6c6c6a
        080e   
      </CharString>
      <CharString index="5" raw="1">
        15a578b4 afb2aeb4 b019a7a5 919a991a
        a5789778 797a816c 781e6b5b 6e5d6f5c
        080e   
      </CharString>
</ttFont>
